<svg width="30" height="30" viewBox="0 0 30 30" fill="none" xmlns="http://www.w3.org/2000/svg">
<path d="M14.9995 9.37501C15.937 5.67423 19.4778 3.78458 27.187 3.75001C27.3103 3.74954 27.4324 3.77347 27.5463 3.82042C27.6603 3.86737 27.7638 3.93641 27.851 4.02356C27.9381 4.11071 28.0071 4.21424 28.0541 4.32819C28.101 4.44214 28.125 4.56426 28.1245 4.68751V21.5625C28.1245 21.8111 28.0257 22.0496 27.8499 22.2254C27.6741 22.4012 27.4357 22.5 27.187 22.5C19.687 22.5 16.7896 24.0123 14.9995 26.25C13.22 24.0234 10.312 22.5 2.81202 22.5C2.23311 22.5 1.87452 22.0283 1.87452 21.4494V4.68751C1.87405 4.56426 1.89799 4.44214 1.94493 4.32819C1.99188 4.21424 2.06092 4.11071 2.14807 4.02356C2.23522 3.93641 2.33875 3.86737 2.4527 3.82042C2.56666 3.77347 2.68877 3.74954 2.81202 3.75001C10.5212 3.78458 14.062 5.67423 14.9995 9.37501Z" stroke="black" stroke-width="1.00189" stroke-linecap="round" stroke-linejoin="round"/>
<path d="M14.9992 9.37421V26.2492" stroke="black" stroke-width="1.00189" stroke-linecap="round" stroke-linejoin="round"/>
</svg>
