<svg width="30" height="30" viewBox="0 0 30 30" fill="none" xmlns="http://www.w3.org/2000/svg">
<path d="M10.3124 24.3751V28.1278" stroke="black" stroke-width="1.00189" stroke-linecap="round" stroke-linejoin="round"/>
<path d="M4.68866 1.87494H15.9387C16.4359 1.87494 16.9129 2.07248 17.2645 2.42411C17.6161 2.77574 17.8137 3.25266 17.8137 3.74994V27.8906C17.8137 27.9527 17.789 28.0123 17.745 28.0563C17.7011 28.1002 17.6414 28.1249 17.5793 28.1249H2.81366V3.74994C2.81366 3.25266 3.0112 2.77574 3.36283 2.42411C3.71447 2.07248 4.19138 1.87494 4.68866 1.87494V1.87494Z" stroke="black" stroke-width="1.00189" stroke-linecap="round" stroke-linejoin="round"/>
<path d="M18.7505 11.2495H25.313C25.8103 11.2495 26.2872 11.447 26.6388 11.7986C26.9904 12.1503 27.188 12.6272 27.188 13.1245V28.1245H17.813V12.187C17.813 11.9383 17.9118 11.6999 18.0876 11.524C18.2634 11.3482 18.5018 11.2495 18.7505 11.2495Z" stroke="black" stroke-width="1.00189" stroke-linecap="round" stroke-linejoin="round"/>
<path d="M5.75714 25.3216C5.56123 25.3472 5.36222 25.3108 5.18803 25.2176C5.01384 25.1243 4.87322 24.9789 4.78591 24.8016C4.6986 24.6244 4.66898 24.4243 4.70121 24.2293C4.73343 24.0344 4.82589 23.8545 4.9656 23.7147C5.1053 23.575 5.28525 23.4826 5.48018 23.4504C5.67512 23.4181 5.87525 23.4477 6.05248 23.5351C6.22972 23.6224 6.37518 23.763 6.46842 23.9372C6.56167 24.1114 6.59804 24.3104 6.57242 24.5063C6.54538 24.713 6.45078 24.9051 6.30335 25.0525C6.15591 25.1999 5.96389 25.2945 5.75714 25.3216Z" fill="black"/>
<path d="M5.75714 20.6337C5.56123 20.6593 5.36222 20.623 5.18803 20.5297C5.01384 20.4365 4.87322 20.291 4.78591 20.1138C4.6986 19.9365 4.66898 19.7364 4.70121 19.5415C4.73343 19.3465 4.82589 19.1666 4.9656 19.0269C5.1053 18.8872 5.28525 18.7947 5.48018 18.7625C5.67512 18.7303 5.87525 18.7599 6.05248 18.8472C6.22972 18.9345 6.37518 19.0751 6.46842 19.2493C6.56167 19.4235 6.59804 19.6225 6.57242 19.8184C6.54538 20.0252 6.45078 20.2172 6.30335 20.3646C6.15591 20.5121 5.96389 20.6067 5.75714 20.6337Z" fill="black"/>
<path d="M5.75714 15.9458C5.56123 15.9715 5.36222 15.9351 5.18803 15.8418C5.01384 15.7486 4.87322 15.6031 4.78591 15.4259C4.6986 15.2487 4.66898 15.0485 4.70121 14.8536C4.73343 14.6587 4.82589 14.4787 4.9656 14.339C5.1053 14.1993 5.28525 14.1068 5.48018 14.0746C5.67512 14.0424 5.87525 14.072 6.05248 14.1593C6.22972 14.2466 6.37518 14.3873 6.46842 14.5614C6.56167 14.7356 6.59804 14.9346 6.57242 15.1306C6.54538 15.3373 6.45078 15.5293 6.30335 15.6768C6.15591 15.8242 5.96389 15.9188 5.75714 15.9458Z" fill="black"/>
<path d="M5.75714 11.2588C5.56123 11.2844 5.36222 11.248 5.18803 11.1548C5.01384 11.0615 4.87322 10.9161 4.78591 10.7388C4.6986 10.5616 4.66898 10.3615 4.70121 10.1665C4.73343 9.97159 4.82589 9.79164 4.9656 9.65194C5.1053 9.51223 5.28525 9.41977 5.48018 9.38755C5.67512 9.35532 5.87525 9.38494 6.05248 9.47225C6.22972 9.55956 6.37518 9.70018 6.46842 9.87437C6.56167 10.0486 6.59804 10.2476 6.57242 10.4435C6.54538 10.6502 6.45078 10.8422 6.30335 10.9897C6.15591 11.1371 5.96389 11.2317 5.75714 11.2588Z" fill="black"/>
<path d="M5.75714 6.57107C5.56123 6.5967 5.36222 6.56033 5.18803 6.46708C5.01384 6.37383 4.87322 6.22838 4.78591 6.05114C4.6986 5.8739 4.66898 5.67377 4.70121 5.47884C4.73343 5.28391 4.82589 5.10396 4.9656 4.96425C5.1053 4.82454 5.28525 4.73209 5.48018 4.69986C5.67512 4.66764 5.87525 4.69726 6.05248 4.78457C6.22972 4.87188 6.37518 5.0125 6.46842 5.18669C6.56167 5.36087 6.59804 5.55989 6.57242 5.7558C6.54538 5.96255 6.45078 6.15457 6.30335 6.302C6.15591 6.44944 5.96389 6.54403 5.75714 6.57107Z" fill="black"/>
<path d="M10.4442 20.6337C10.2483 20.6593 10.0493 20.623 9.8751 20.5297C9.70091 20.4365 9.5603 20.291 9.47298 20.1138C9.38567 19.9365 9.35605 19.7364 9.38828 19.5415C9.4205 19.3465 9.51296 19.1666 9.65267 19.0269C9.79238 18.8872 9.97232 18.7947 10.1673 18.7625C10.3622 18.7303 10.5623 18.7599 10.7396 18.8472C10.9168 18.9345 11.0622 19.0751 11.1555 19.2493C11.2487 19.4235 11.2851 19.6225 11.2595 19.8184C11.2324 20.0252 11.1379 20.2172 10.9904 20.3646C10.843 20.5121 10.651 20.6067 10.4442 20.6337Z" fill="black"/>
<path d="M10.4442 15.9458C10.2483 15.9715 10.0493 15.9351 9.8751 15.8418C9.70091 15.7486 9.5603 15.6031 9.47298 15.4259C9.38567 15.2487 9.35605 15.0485 9.38828 14.8536C9.4205 14.6587 9.51296 14.4787 9.65267 14.339C9.79238 14.1993 9.97232 14.1068 10.1673 14.0746C10.3622 14.0424 10.5623 14.072 10.7396 14.1593C10.9168 14.2466 11.0622 14.3873 11.1555 14.5614C11.2487 14.7356 11.2851 14.9346 11.2595 15.1306C11.2324 15.3373 11.1379 15.5293 10.9904 15.6768C10.843 15.8242 10.651 15.9188 10.4442 15.9458Z" fill="black"/>
<path d="M10.4442 11.2588C10.2483 11.2844 10.0493 11.248 9.8751 11.1548C9.70091 11.0615 9.5603 10.9161 9.47298 10.7388C9.38567 10.5616 9.35605 10.3615 9.38828 10.1665C9.4205 9.97159 9.51296 9.79164 9.65267 9.65194C9.79238 9.51223 9.97232 9.41977 10.1673 9.38755C10.3622 9.35532 10.5623 9.38494 10.7396 9.47225C10.9168 9.55956 11.0622 9.70018 11.1555 9.87437C11.2487 10.0486 11.2851 10.2476 11.2595 10.4435C11.2324 10.6502 11.1379 10.8422 10.9904 10.9897C10.843 11.1371 10.651 11.2317 10.4442 11.2588Z" fill="black"/>
<path d="M10.4442 6.57107C10.2483 6.5967 10.0493 6.56033 9.8751 6.46708C9.70091 6.37383 9.5603 6.22838 9.47298 6.05114C9.38567 5.8739 9.35605 5.67377 9.38828 5.47884C9.4205 5.28391 9.51296 5.10396 9.65267 4.96425C9.79238 4.82454 9.97232 4.73209 10.1673 4.69986C10.3622 4.66764 10.5623 4.69726 10.7396 4.78457C10.9168 4.87188 11.0622 5.0125 11.1555 5.18669C11.2487 5.36087 11.2851 5.55989 11.2595 5.7558C11.2324 5.96255 11.1379 6.15457 10.9904 6.302C10.843 6.44944 10.651 6.54403 10.4442 6.57107Z" fill="black"/>
<path d="M15.132 25.3216C14.9361 25.3472 14.7371 25.3108 14.5629 25.2176C14.3887 25.1243 14.2481 24.9789 14.1608 24.8016C14.0735 24.6244 14.0439 24.4243 14.0761 24.2293C14.1083 24.0344 14.2008 23.8545 14.3405 23.7147C14.4802 23.575 14.6601 23.4826 14.8551 23.4504C15.05 23.4181 15.2501 23.4477 15.4274 23.5351C15.6046 23.6224 15.7501 23.763 15.8433 23.9372C15.9366 24.1114 15.9729 24.3104 15.9473 24.5063C15.9203 24.713 15.8257 24.9051 15.6782 25.0525C15.5308 25.1999 15.3388 25.2945 15.132 25.3216Z" fill="black"/>
<path d="M15.132 20.6337C14.9361 20.6593 14.7371 20.623 14.5629 20.5297C14.3887 20.4365 14.2481 20.291 14.1608 20.1138C14.0735 19.9365 14.0439 19.7364 14.0761 19.5415C14.1083 19.3465 14.2008 19.1666 14.3405 19.0269C14.4802 18.8872 14.6601 18.7947 14.8551 18.7625C15.05 18.7303 15.2501 18.7599 15.4274 18.8472C15.6046 18.9345 15.7501 19.0751 15.8433 19.2493C15.9366 19.4235 15.9729 19.6225 15.9473 19.8184C15.9203 20.0252 15.8257 20.2172 15.6782 20.3646C15.5308 20.5121 15.3388 20.6067 15.132 20.6337Z" fill="black"/>
<path d="M15.132 15.9458C14.9361 15.9715 14.7371 15.9351 14.5629 15.8418C14.3887 15.7486 14.2481 15.6031 14.1608 15.4259C14.0735 15.2487 14.0439 15.0485 14.0761 14.8536C14.1083 14.6587 14.2008 14.4787 14.3405 14.339C14.4802 14.1993 14.6601 14.1068 14.8551 14.0746C15.05 14.0424 15.2501 14.072 15.4274 14.1593C15.6046 14.2466 15.7501 14.3873 15.8433 14.5614C15.9366 14.7356 15.9729 14.9346 15.9473 15.1306C15.9203 15.3373 15.8257 15.5293 15.6782 15.6768C15.5308 15.8242 15.3388 15.9188 15.132 15.9458Z" fill="black"/>
<path d="M15.6829 10.9816C16.0511 10.6133 16.0496 10.0148 15.6795 9.64466C15.3094 9.27456 14.7109 9.27306 14.3426 9.64132C13.9744 10.0096 13.9759 10.6081 14.346 10.9782C14.7161 11.3483 15.3146 11.3498 15.6829 10.9816Z" fill="black"/>
<path d="M15.132 6.57107C14.9361 6.5967 14.7371 6.56033 14.5629 6.46708C14.3887 6.37383 14.2481 6.22838 14.1608 6.05114C14.0735 5.8739 14.0439 5.67377 14.0761 5.47884C14.1083 5.28391 14.2008 5.10396 14.3405 4.96425C14.4802 4.82454 14.6601 4.73209 14.8551 4.69986C15.05 4.66764 15.2501 4.69726 15.4274 4.78457C15.6046 4.87188 15.7501 5.0125 15.8433 5.18669C15.9366 5.36087 15.9729 5.55989 15.9473 5.7558C15.9203 5.96255 15.8257 6.15457 15.6782 6.302C15.5308 6.44944 15.3388 6.54403 15.132 6.57107Z" fill="black"/>
<path d="M23.4469 23.4373C23.2598 23.4373 23.0769 23.4927 22.9214 23.5967C22.7658 23.7006 22.6446 23.8484 22.573 24.0212C22.5014 24.194 22.4827 24.3842 22.5192 24.5677C22.5557 24.7512 22.6457 24.9198 22.778 25.0521C22.9103 25.1844 23.0789 25.2744 23.2624 25.3109C23.4459 25.3474 23.6361 25.3287 23.8089 25.2571C23.9818 25.1855 24.1295 25.0643 24.2334 24.9087C24.3374 24.7532 24.3928 24.5703 24.3928 24.3832C24.3928 24.1323 24.2932 23.8917 24.1158 23.7143C23.9384 23.5369 23.6978 23.4373 23.4469 23.4373Z" fill="black"/>
<path d="M23.4469 18.7493C23.2598 18.7493 23.0769 18.8048 22.9214 18.9087C22.7658 19.0127 22.6446 19.1604 22.573 19.3333C22.5014 19.5061 22.4827 19.6963 22.5192 19.8798C22.5557 20.0633 22.6457 20.2318 22.778 20.3641C22.9103 20.4964 23.0789 20.5865 23.2624 20.623C23.4459 20.6595 23.6361 20.6408 23.8089 20.5692C23.9818 20.4976 24.1295 20.3764 24.2334 20.2208C24.3374 20.0652 24.3928 19.8824 24.3928 19.6953C24.3928 19.4444 24.2932 19.2038 24.1158 19.0264C23.9384 18.849 23.6978 18.7493 23.4469 18.7493Z" fill="black"/>
<path d="M23.4469 14.0615C23.2598 14.0615 23.0769 14.1169 22.9214 14.2209C22.7658 14.3248 22.6446 14.4726 22.573 14.6454C22.5014 14.8182 22.4827 15.0084 22.5192 15.1919C22.5557 15.3754 22.6457 15.544 22.778 15.6763C22.9103 15.8086 23.0789 15.8987 23.2624 15.9352C23.4459 15.9717 23.6361 15.9529 23.8089 15.8813C23.9818 15.8097 24.1295 15.6885 24.2334 15.5329C24.3374 15.3774 24.3928 15.1945 24.3928 15.0074C24.3928 14.7565 24.2932 14.5159 24.1158 14.3385C23.9384 14.1611 23.6978 14.0615 23.4469 14.0615Z" fill="black"/>
<path d="M19.6973 23.4373C19.5102 23.4373 19.3274 23.4927 19.1718 23.5967C19.0162 23.7006 18.895 23.8484 18.8234 24.0212C18.7518 24.194 18.7331 24.3842 18.7696 24.5677C18.8061 24.7512 18.8962 24.9198 19.0285 25.0521C19.1608 25.1844 19.3293 25.2744 19.5128 25.3109C19.6963 25.3474 19.8865 25.3287 20.0593 25.2571C20.2322 25.1855 20.3799 25.0643 20.4839 24.9087C20.5878 24.7532 20.6433 24.5703 20.6433 24.3832C20.6433 24.1323 20.5436 23.8917 20.3662 23.7143C20.1888 23.5369 19.9482 23.4373 19.6973 23.4373Z" fill="black"/>
<path d="M19.6973 18.7493C19.5102 18.7493 19.3274 18.8048 19.1718 18.9087C19.0162 19.0127 18.895 19.1604 18.8234 19.3333C18.7518 19.5061 18.7331 19.6963 18.7696 19.8798C18.8061 20.0633 18.8962 20.2318 19.0285 20.3641C19.1608 20.4964 19.3293 20.5865 19.5128 20.623C19.6963 20.6595 19.8865 20.6408 20.0593 20.5692C20.2322 20.4976 20.3799 20.3764 20.4839 20.2208C20.5878 20.0652 20.6433 19.8824 20.6433 19.6953C20.6433 19.4444 20.5436 19.2038 20.3662 19.0264C20.1888 18.849 19.9482 18.7493 19.6973 18.7493Z" fill="black"/>
<path d="M19.6973 14.0615C19.5102 14.0615 19.3274 14.1169 19.1718 14.2209C19.0162 14.3248 18.895 14.4726 18.8234 14.6454C18.7518 14.8182 18.7331 15.0084 18.7696 15.1919C18.8061 15.3754 18.8962 15.544 19.0285 15.6763C19.1608 15.8086 19.3293 15.8987 19.5128 15.9352C19.6963 15.9717 19.8865 15.9529 20.0593 15.8813C20.2322 15.8097 20.3799 15.6885 20.4839 15.5329C20.5878 15.3774 20.6433 15.1945 20.6433 15.0074C20.6433 14.7565 20.5436 14.5159 20.3662 14.3385C20.1888 14.1611 19.9482 14.0615 19.6973 14.0615Z" fill="black"/>
</svg>
