<svg width="30" height="30" viewBox="0 0 30 30" fill="none" xmlns="http://www.w3.org/2000/svg">
<path d="M2.81287 19.6879L27.1879 19.6879C27.7056 19.6879 28.1254 19.2681 28.1254 18.7504V5.62537C28.1254 5.1076 27.7056 4.68787 27.1879 4.68787L2.81287 4.68787C2.2951 4.68787 1.87537 5.1076 1.87537 5.62537V18.7504C1.87537 19.2681 2.2951 19.6879 2.81287 19.6879Z" stroke="black" stroke-width="1.00189" stroke-linejoin="round"/>
<path d="M3.7514 22.5004H26.2514" stroke="black" stroke-width="1.00189" stroke-linecap="round" stroke-linejoin="round"/>
<path d="M5.62628 25.313H24.3763" stroke="black" stroke-width="1.00189" stroke-linecap="round" stroke-linejoin="round"/>
<path d="M15.0018 16.8765C17.591 16.8765 19.6899 14.7776 19.6899 12.1884C19.6899 9.59915 17.591 7.50018 15.0018 7.50018C12.4126 7.50018 10.3136 9.59915 10.3136 12.1884C10.3136 14.7776 12.4126 16.8765 15.0018 16.8765Z" stroke="black" stroke-width="1.00189" stroke-linecap="round" stroke-linejoin="round"/>
<path d="M28.1308 9.37857C26.8867 9.37857 25.6936 8.88435 24.8138 8.00462C23.9341 7.1249 23.4399 5.93174 23.4399 4.68762" stroke="black" stroke-width="1.00189" stroke-linecap="round" stroke-linejoin="round"/>
<path d="M1.87689 9.37851C2.49292 9.37851 3.10291 9.25717 3.67204 9.02143C4.24117 8.78569 4.7583 8.44016 5.19389 8.00456C5.62949 7.56897 5.97502 7.05184 6.21076 6.48271C6.44651 5.91358 6.56784 5.30359 6.56784 4.68756" stroke="black" stroke-width="1.00189" stroke-linecap="round" stroke-linejoin="round"/>
<path d="M28.1308 15.0007C26.8867 15.0007 25.6936 15.495 24.8138 16.3747C23.9341 17.2544 23.4399 18.4476 23.4399 19.6917" stroke="black" stroke-width="1.00189" stroke-linecap="round" stroke-linejoin="round"/>
<path d="M1.87738 15.0007C2.4934 15.0007 3.1034 15.1221 3.67253 15.3578C4.24166 15.5936 4.75879 15.9391 5.19438 16.3747C5.62998 16.8103 5.97551 17.3274 6.21125 17.8965C6.44699 18.4657 6.56833 19.0757 6.56833 19.6917" stroke="black" stroke-width="1.00189" stroke-linecap="round" stroke-linejoin="round"/>
</svg>
