<svg width="30" height="30" viewBox="0 0 30 30" fill="none" xmlns="http://www.w3.org/2000/svg">
<path d="M24.3746 12.9639V24.3751C24.3746 25.121 24.0783 25.8364 23.5509 26.3638C23.0234 26.8913 22.3081 27.1876 21.5621 27.1876H8.43713C7.69121 27.1876 6.97584 26.8913 6.4484 26.3638C5.92095 25.8364 5.62463 25.121 5.62463 24.3751V5.62506C5.62463 4.87914 5.92095 4.16377 6.4484 3.63632C6.97584 3.10888 7.69121 2.81256 8.43713 2.81256H14.2233C14.7204 2.81264 15.1971 3.01012 15.5487 3.36158L23.8256 11.6385C24.1771 11.9901 24.3746 12.4668 24.3746 12.9639Z" stroke="black" stroke-width="1.00189" stroke-linejoin="round"/>
<path d="M15.0001 3.28098V10.3132C15.0001 10.8106 15.1977 11.2876 15.5494 11.6392C15.9011 11.9909 16.378 12.1885 16.8754 12.1885H23.9076" stroke="black" stroke-width="1.00189" stroke-linecap="round" stroke-linejoin="round"/>
<path d="M10.3124 16.8754H19.6887" stroke="black" stroke-width="1.00189" stroke-linecap="round" stroke-linejoin="round"/>
<path d="M10.3124 21.5625H19.6887" stroke="black" stroke-width="1.00189" stroke-linecap="round" stroke-linejoin="round"/>
</svg>
